<?xml version="1.0" standalone="no"?><svg xmlns="http://www.w3.org/2000/svg" viewBox="0 0 1440 320"><path fill="#F7F7F8" fill-opacity="1" d="M0,256L40,229.3C80,203,160,149,240,133.3C320,117,400,139,480,154.7C560,171,640,181,720,176C800,171,880,149,960,138.7C1040,128,1120,128,1200,117.3C1280,107,1360,85,1400,74.7L1440,64L1440,320L1400,320C1360,320,1280,320,1200,320C1120,320,1040,320,960,320C880,320,800,320,720,320C640,320,560,320,480,320C400,320,320,320,240,320C160,320,80,320,40,320L0,320Z"></path></svg>